<svg width="95" height="133" viewBox="0 0 95 133" fill="none" xmlns="http://www.w3.org/2000/svg">
<rect width="95" height="133" rx="4" fill="white"/>
<path d="M9.936 11.664C9.936 9.024 10.992 7.968 12.6 7.968C14.136 7.968 15.072 8.88 15.072 11.088V11.304H17.472V10.896C17.472 7.536 15.36 5.76 12.6 5.76C9.72 5.76 7.536 7.728 7.536 11.472V18.528C7.536 22.272 9.72 24.24 12.6 24.24C15.48 24.24 17.664 22.344 17.664 18.768V18.288C17.664 14.64 15.696 12.816 13.224 12.816C11.88 12.816 10.704 13.344 9.936 14.688V11.664ZM9.936 18.312C9.936 15.96 10.968 15.024 12.6 15.024C14.28 15.024 15.264 15.96 15.264 18.312V18.744C15.264 21.048 14.232 22.032 12.6 22.032C10.968 22.032 9.936 21.072 9.936 18.744V18.312Z" fill="black"/>
<path d="M85.064 120.336C85.064 122.976 84.008 124.032 82.4 124.032C80.864 124.032 79.928 123.12 79.928 120.912L79.928 120.696L77.528 120.696L77.528 121.104C77.528 124.464 79.64 126.24 82.4 126.24C85.28 126.24 87.464 124.272 87.464 120.528L87.464 113.472C87.464 109.728 85.28 107.76 82.4 107.76C79.52 107.76 77.336 109.656 77.336 113.232L77.336 113.712C77.336 117.36 79.304 119.184 81.776 119.184C83.12 119.184 84.296 118.656 85.064 117.312L85.064 120.336ZM85.064 113.688C85.064 116.04 84.032 116.976 82.4 116.976C80.72 116.976 79.736 116.04 79.736 113.688L79.736 113.256C79.736 110.952 80.768 109.968 82.4 109.968C84.032 109.968 85.064 110.928 85.064 113.256L85.064 113.688Z" fill="black"/>
<path d="M48 54.0002L58.2705 66.7817L48 79.4994L37.7295 66.7817L48 54.0002Z" fill="#FF4545"/>
<path d="M12.3748 28L15.0933 31.3832L12.3748 34.7495L9.6562 31.3832L12.3748 28Z" fill="#FF4545"/>
<path d="M82.3748 97L85.0933 100.383L82.3748 103.75L79.6562 100.383L82.3748 97Z" fill="#FF4545"/>
</svg>
