<svg width="95" height="133" viewBox="0 0 95 133" fill="none" xmlns="http://www.w3.org/2000/svg">
<rect width="95" height="133" rx="4" fill="white"/>
<path d="M9.936 11.664C9.936 9.024 10.992 7.968 12.6 7.968C14.136 7.968 15.072 8.88 15.072 11.088V11.304H17.472V10.896C17.472 7.536 15.36 5.76 12.6 5.76C9.72 5.76 7.536 7.728 7.536 11.472V18.528C7.536 22.272 9.72 24.24 12.6 24.24C15.48 24.24 17.664 22.344 17.664 18.768V18.288C17.664 14.64 15.696 12.816 13.224 12.816C11.88 12.816 10.704 13.344 9.936 14.688V11.664ZM9.936 18.312C9.936 15.96 10.968 15.024 12.6 15.024C14.28 15.024 15.264 15.96 15.264 18.312V18.744C15.264 21.048 14.232 22.032 12.6 22.032C10.968 22.032 9.936 21.072 9.936 18.744V18.312Z" fill="black"/>
<path d="M85.064 120.336C85.064 122.976 84.008 124.032 82.4 124.032C80.864 124.032 79.928 123.12 79.928 120.912L79.928 120.696L77.528 120.696L77.528 121.104C77.528 124.464 79.64 126.24 82.4 126.24C85.28 126.24 87.464 124.272 87.464 120.528L87.464 113.472C87.464 109.728 85.28 107.76 82.4 107.76C79.52 107.76 77.336 109.656 77.336 113.232L77.336 113.712C77.336 117.36 79.304 119.184 81.776 119.184C83.12 119.184 84.296 118.656 85.064 117.312L85.064 120.336ZM85.064 113.688C85.064 116.04 84.032 116.976 82.4 116.976C80.72 116.976 79.736 116.04 79.736 113.688L79.736 113.256C79.736 110.952 80.768 109.968 82.4 109.968C84.032 109.968 85.064 110.928 85.064 113.256L85.064 113.688Z" fill="black"/>
<path fill-rule="evenodd" clip-rule="evenodd" d="M47.4946 76.7216C49.3283 78.7749 51.7912 80 53.9419 80C57.6159 80 61.841 77.9312 62.0247 71.7248C61.8538 65.601 55.1644 60.4538 48.7603 55.5261C48.2805 55.1569 47.8024 54.789 47.3287 54.422C47.3287 54.422 47.3287 54.4221 47.3286 54.4221C47.3286 54.4221 47.3286 54.422 47.3286 54.422C47.0942 54.6036 46.8591 54.7854 46.6238 54.9675C40.0334 60.0656 33.1774 65.3692 33 71.7248C33.1837 77.9312 37.7762 80 41.4502 80C43.6009 80 45.8557 78.7749 47.4946 76.7216Z" fill="black"/>
<path fill-rule="evenodd" clip-rule="evenodd" d="M12.4519 29.007C12.5627 29.0908 12.6744 29.1747 12.7864 29.2589C14.3251 30.4148 15.9323 31.6223 15.9734 33.0588C15.9293 34.5147 14.9141 35 14.0314 35C13.5147 35 12.923 34.7127 12.4824 34.2311C12.0887 34.7127 11.547 35 11.0303 35C10.1475 35 9.04414 34.5147 9 33.0588C9.04261 31.5679 10.6899 30.3238 12.2733 29.1279C12.3266 29.0876 12.3799 29.0473 12.4331 29.0071C12.4362 29.0047 12.4393 29.0023 12.4425 28.9999C12.4425 28.9999 12.4425 28.9999 12.4426 28.9999C12.4426 28.9999 12.4426 28.9999 12.4426 28.9999C12.4458 29.0023 12.4489 29.0047 12.4519 29.007Z" fill="black"/>
<path fill-rule="evenodd" clip-rule="evenodd" d="M82.5214 103.635C82.4107 103.557 82.299 103.478 82.1869 103.399C80.6483 102.312 79.0411 101.176 79 99.8254C79.0441 98.4564 80.0593 98 80.942 98C81.4587 98 82.0504 98.2702 82.4909 98.7231C82.8847 98.2702 83.4264 98 83.9431 98C84.8258 98 85.9293 98.4564 85.9734 99.8254C85.9308 101.227 84.2835 102.397 82.7001 103.522C82.6467 103.56 82.5934 103.598 82.5403 103.635C82.5372 103.638 82.534 103.64 82.5309 103.642C82.5309 103.642 82.5309 103.642 82.5308 103.642C82.5308 103.642 82.5308 103.642 82.5308 103.642C82.5276 103.64 82.5245 103.638 82.5214 103.635Z" fill="black"/>
</svg>
