<svg width="95" height="133" viewBox="0 0 95 133" fill="none" xmlns="http://www.w3.org/2000/svg">
<rect width="95" height="133" rx="4" fill="white"/>
<path d="M11.616 22.776C11.616 16.2 13.272 13.512 15.6 9V6H6.432V8.208H13.632C11.28 12.6 9.216 16.128 9.216 23.184V24H11.616V22.776Z" fill="black"/>
<path d="M83.384 109.224C83.384 115.8 81.728 118.488 79.4 123L79.4 126L88.568 126L88.568 123.792L81.368 123.792C83.72 119.4 85.784 115.872 85.784 108.816L85.784 108L83.384 108L83.384 109.224Z" fill="black"/>
<path d="M48 54.0002L58.2705 66.7817L48 79.4994L37.7295 66.7817L48 54.0002Z" fill="#FF4545"/>
<path d="M12.3748 28L15.0933 31.3832L12.3748 34.7495L9.6562 31.3832L12.3748 28Z" fill="#FF4545"/>
<path d="M82.3748 97L85.0933 100.383L82.3748 103.75L79.6562 100.383L82.3748 97Z" fill="#FF4545"/>
</svg>
