<svg width="95" height="133" viewBox="0 0 95 133" fill="none" xmlns="http://www.w3.org/2000/svg">
<rect width="95" height="133" rx="4" fill="white"/>
<path d="M7.2 18.36V19.416C7.2 22.56 9.504 24.24 12.36 24.24C15.216 24.24 17.52 22.56 17.52 19.416V18.36C17.52 16.416 16.464 15.072 14.904 14.4C16.152 13.752 16.992 12.576 16.992 10.896V10.032C16.992 7.248 14.928 5.76 12.36 5.76C9.792 5.76 7.728 7.248 7.728 10.032V10.896C7.728 12.576 8.568 13.752 9.816 14.4C8.256 15.072 7.2 16.416 7.2 18.36ZM10.128 10.248C10.128 8.64 11.064 7.968 12.36 7.968C13.68 7.968 14.592 8.64 14.592 10.248V10.872C14.592 12.6 13.728 13.344 12.36 13.344C11.016 13.344 10.128 12.6 10.128 10.872V10.248ZM9.6 18.384C9.6 16.368 10.704 15.552 12.36 15.552C14.04 15.552 15.12 16.368 15.12 18.384V19.2C15.12 21.168 14.04 22.032 12.36 22.032C10.704 22.032 9.6 21.168 9.6 19.2V18.384Z" fill="black"/>
<path d="M87.8 113.64L87.8 112.584C87.8 109.44 85.496 107.76 82.64 107.76C79.784 107.76 77.48 109.44 77.48 112.584L77.48 113.64C77.48 115.584 78.536 116.928 80.096 117.6C78.848 118.248 78.008 119.424 78.008 121.104L78.008 121.968C78.008 124.752 80.072 126.24 82.64 126.24C85.208 126.24 87.272 124.752 87.272 121.968L87.272 121.104C87.272 119.424 86.432 118.248 85.184 117.6C86.744 116.928 87.8 115.584 87.8 113.64ZM84.872 121.752C84.872 123.36 83.936 124.032 82.64 124.032C81.32 124.032 80.408 123.36 80.408 121.752L80.408 121.128C80.408 119.4 81.272 118.656 82.64 118.656C83.984 118.656 84.872 119.4 84.872 121.128L84.872 121.752ZM85.4 113.616C85.4 115.632 84.296 116.448 82.64 116.448C80.96 116.448 79.88 115.632 79.88 113.616L79.88 112.8C79.88 110.832 80.96 109.968 82.64 109.968C84.296 109.968 85.4 110.832 85.4 112.8L85.4 113.616Z" fill="black"/>
<path fill-rule="evenodd" clip-rule="evenodd" d="M47.4946 76.7216C49.3283 78.7749 51.7912 80 53.9419 80C57.6159 80 61.841 77.9312 62.0247 71.7248C61.8538 65.601 55.1644 60.4538 48.7603 55.5261C48.2805 55.1569 47.8024 54.789 47.3287 54.422C47.3287 54.422 47.3287 54.4221 47.3286 54.4221C47.3286 54.4221 47.3286 54.422 47.3286 54.422C47.0942 54.6036 46.8591 54.7854 46.6238 54.9675C40.0334 60.0656 33.1774 65.3692 33 71.7248C33.1837 77.9312 37.7762 80 41.4502 80C43.6009 80 45.8557 78.7749 47.4946 76.7216Z" fill="black"/>
<path fill-rule="evenodd" clip-rule="evenodd" d="M12.4519 29.007C12.5627 29.0908 12.6744 29.1747 12.7864 29.2589C14.3251 30.4148 15.9323 31.6223 15.9734 33.0588C15.9293 34.5147 14.9141 35 14.0314 35C13.5147 35 12.923 34.7127 12.4824 34.2311C12.0887 34.7127 11.547 35 11.0303 35C10.1475 35 9.04414 34.5147 9 33.0588C9.04261 31.5679 10.6899 30.3238 12.2733 29.1279C12.3266 29.0876 12.3799 29.0473 12.4331 29.0071C12.4362 29.0047 12.4393 29.0023 12.4425 28.9999C12.4425 28.9999 12.4425 28.9999 12.4426 28.9999C12.4426 28.9999 12.4426 28.9999 12.4426 28.9999C12.4458 29.0023 12.4489 29.0047 12.4519 29.007Z" fill="black"/>
<path fill-rule="evenodd" clip-rule="evenodd" d="M82.5214 103.635C82.4107 103.557 82.299 103.478 82.1869 103.399C80.6483 102.312 79.0411 101.176 79 99.8254C79.0441 98.4564 80.0593 98 80.942 98C81.4587 98 82.0504 98.2702 82.4909 98.7231C82.8847 98.2702 83.4264 98 83.9431 98C84.8258 98 85.9293 98.4564 85.9734 99.8254C85.9308 101.227 84.2835 102.397 82.7001 103.522C82.6467 103.56 82.5934 103.598 82.5403 103.635C82.5372 103.638 82.534 103.64 82.5309 103.642C82.5309 103.642 82.5309 103.642 82.5308 103.642C82.5308 103.642 82.5308 103.642 82.5308 103.642C82.5276 103.64 82.5245 103.638 82.5214 103.635Z" fill="black"/>
</svg>
