<svg width="95" height="133" viewBox="0 0 95 133" fill="none" xmlns="http://www.w3.org/2000/svg">
<rect width="95" height="133" rx="4" fill="white"/>
<path d="M15.264 18.336C15.264 20.976 14.208 22.032 12.6 22.032C11.064 22.032 10.128 21.12 10.128 18.912V18.696H7.728V19.104C7.728 22.464 9.84 24.24 12.6 24.24C15.48 24.24 17.664 22.272 17.664 18.528V11.472C17.664 7.728 15.48 5.76 12.6 5.76C9.72 5.76 7.536 7.656 7.536 11.232V11.712C7.536 15.36 9.504 17.184 11.976 17.184C13.32 17.184 14.496 16.656 15.264 15.312V18.336ZM15.264 11.688C15.264 14.04 14.232 14.976 12.6 14.976C10.92 14.976 9.936 14.04 9.936 11.688V11.256C9.936 8.952 10.968 7.968 12.6 7.968C14.232 7.968 15.264 8.928 15.264 11.256V11.688Z" fill="black"/>
<path d="M79.736 113.664C79.736 111.024 80.792 109.968 82.4 109.968C83.936 109.968 84.872 110.88 84.872 113.088L84.872 113.304L87.272 113.304L87.272 112.896C87.272 109.536 85.16 107.76 82.4 107.76C79.52 107.76 77.336 109.728 77.336 113.472L77.336 120.528C77.336 124.272 79.52 126.24 82.4 126.24C85.28 126.24 87.464 124.344 87.464 120.768L87.464 120.288C87.464 116.64 85.496 114.816 83.024 114.816C81.68 114.816 80.504 115.344 79.736 116.688L79.736 113.664ZM79.736 120.312C79.736 117.96 80.768 117.024 82.4 117.024C84.08 117.024 85.064 117.96 85.064 120.312L85.064 120.744C85.064 123.048 84.032 124.032 82.4 124.032C80.768 124.032 79.736 123.072 79.736 120.744L79.736 120.312Z" fill="black"/>
<path d="M48 54.0002L58.2705 66.7817L48 79.4994L37.7295 66.7817L48 54.0002Z" fill="#FF4545"/>
<path d="M12.3748 28L15.0933 31.3832L12.3748 34.7495L9.6562 31.3832L12.3748 28Z" fill="#FF4545"/>
<path d="M82.3748 97L85.0933 100.383L82.3748 103.75L79.6562 100.383L82.3748 97Z" fill="#FF4545"/>
</svg>
