<svg width="95" height="133" viewBox="0 0 95 133" fill="none" xmlns="http://www.w3.org/2000/svg">
<rect width="95" height="133" rx="4" fill="white"/>
<path d="M14.208 6V19.056C14.208 21.24 13.248 22.032 11.784 22.032C10.344 22.032 9.36 21.24 9.36 19.056V17.712H6.96V19.248C6.96 22.584 9.072 24.24 11.784 24.24C14.496 24.24 16.608 22.584 16.608 19.248V6H14.208Z" fill="black"/>
<path d="M80.792 126L80.792 112.944C80.792 110.76 81.752 109.968 83.216 109.968C84.656 109.968 85.64 110.76 85.64 112.944L85.64 114.288L88.04 114.288L88.04 112.752C88.04 109.416 85.928 107.76 83.216 107.76C80.504 107.76 78.392 109.416 78.392 112.752L78.392 126L80.792 126Z" fill="black"/>
<path fill-rule="evenodd" clip-rule="evenodd" d="M47.53 57.2785C45.6964 55.2252 43.2335 54.0001 41.0828 54.0001C37.4088 54.0001 33.1837 56.0689 33 62.2754C33.1709 68.3992 39.8603 73.5464 46.2644 78.474C46.7441 78.8432 47.2223 79.2111 47.696 79.5781C47.696 79.5781 47.696 79.5781 47.696 79.578C47.6961 79.5781 47.6961 79.5781 47.6961 79.5781C47.9305 79.3965 48.1655 79.2147 48.4009 79.0326C54.9912 73.9345 61.8473 68.6309 62.0247 62.2754C61.841 56.0689 57.2485 54.0001 53.5745 54.0001C51.4238 54.0001 49.169 55.2252 47.53 57.2785Z" fill="#FF4545"/>
<path fill-rule="evenodd" clip-rule="evenodd" d="M12.5214 34.9928C12.4107 34.9091 12.299 34.8252 12.1869 34.741C10.6483 33.5851 9.04106 32.3776 9 30.9411C9.04414 29.4852 10.0593 28.9999 10.942 28.9999C11.4587 28.9999 12.0504 29.2872 12.4909 29.7688C12.8847 29.2872 13.4264 28.9999 13.9431 28.9999C14.8258 28.9999 15.9293 29.4852 15.9734 30.9411C15.9308 32.432 14.2835 33.6761 12.7001 34.872C12.6467 34.9123 12.5935 34.9526 12.5403 34.9928C12.5372 34.9952 12.5341 34.9976 12.5309 35C12.5309 35 12.5309 35 12.5308 34.9999C12.5308 35 12.5308 35 12.5308 35C12.5276 34.9976 12.5245 34.9952 12.5214 34.9928Z" fill="#FF4545"/>
<path fill-rule="evenodd" clip-rule="evenodd" d="M82.452 98.0068C82.5627 98.0855 82.6744 98.1644 82.7864 98.2436C84.3251 99.3305 85.9323 100.466 85.9734 101.817C85.9293 103.186 84.9141 103.642 84.0314 103.642C83.5147 103.642 82.923 103.372 82.4824 102.919C82.0887 103.372 81.547 103.642 81.0303 103.642C80.1475 103.642 79.0441 103.186 79 101.817C79.0426 100.415 80.6899 99.2449 82.2733 98.1203C82.3267 98.0824 82.3799 98.0446 82.4331 98.0068C82.4362 98.0045 82.4393 98.0023 82.4425 98C82.4425 98 82.4425 98 82.4426 98.0001C82.4426 98 82.4426 98 82.4426 98C82.4458 98.0023 82.4489 98.0045 82.452 98.0068Z" fill="#FF4545"/>
</svg>
