<svg width="95" height="133" viewBox="0 0 95 133" fill="none" xmlns="http://www.w3.org/2000/svg">
<rect width="95" height="133" rx="4" fill="white"/>
<path d="M10.176 6H7.776V24H10.176V15.144L15.48 24H18.36L12.672 14.616L18.072 6H15.432L10.176 14.76V6Z" fill="black"/>
<path d="M84.824 126L87.224 126L87.224 108L84.824 108L84.824 116.856L79.52 108L76.64 108L82.328 117.384L76.928 126L79.568 126L84.824 117.24L84.824 126Z" fill="black"/>
<path d="M48 54.0002L58.2705 66.7817L48 79.4994L37.7295 66.7817L48 54.0002Z" fill="#FF4545"/>
<path d="M12.3748 28L15.0933 31.3832L12.3748 34.7495L9.6562 31.3832L12.3748 28Z" fill="#FF4545"/>
<path d="M82.3748 97L85.0933 100.383L82.3748 103.75L79.6562 100.383L82.3748 97Z" fill="#FF4545"/>
</svg>
