<svg width="95" height="133" viewBox="0 0 95 133" fill="none" xmlns="http://www.w3.org/2000/svg">
<rect width="95" height="133" rx="4" fill="white"/>
<path d="M12.36 24.24C13.584 24.24 14.688 23.784 15.144 22.68L16.104 24H18.432L16.848 21.816C17.76 21.048 18.144 19.728 18.144 18.096V11.904C18.144 7.8 16.152 5.76 12.84 5.76C9.528 5.76 7.536 7.8 7.536 11.904V18.096C7.536 22.2 9.528 24.24 12.36 24.24ZM12.84 22.032C11.016 22.032 9.936 20.976 9.936 18.096V11.904C9.936 9.024 11.04 7.968 12.84 7.968C14.664 7.968 15.744 9.024 15.744 11.904V18.096C15.744 18.96 15.648 19.656 15.456 20.208L13.704 17.76H11.304L14.28 21.72C13.872 21.936 13.392 22.032 12.84 22.032Z" fill="black"/>
<path d="M82.64 107.76C81.416 107.76 80.312 108.216 79.856 109.32L78.896 108L76.568 108L78.152 110.184C77.24 110.952 76.856 112.272 76.856 113.904L76.856 120.096C76.856 124.2 78.848 126.24 82.16 126.24C85.472 126.24 87.464 124.2 87.464 120.096L87.464 113.904C87.464 109.8 85.472 107.76 82.64 107.76ZM82.16 109.968C83.984 109.968 85.064 111.024 85.064 113.904L85.064 120.096C85.064 122.976 83.96 124.032 82.16 124.032C80.336 124.032 79.256 122.976 79.256 120.096L79.256 113.904C79.256 113.04 79.352 112.344 79.544 111.792L81.296 114.24L83.696 114.24L80.72 110.28C81.128 110.064 81.608 109.968 82.16 109.968Z" fill="black"/>
<path fill-rule="evenodd" clip-rule="evenodd" d="M47.4946 76.7216C49.3283 78.7749 51.7912 80 53.9419 80C57.6159 80 61.841 77.9312 62.0247 71.7248C61.8538 65.601 55.1644 60.4538 48.7603 55.5261C48.2805 55.1569 47.8024 54.789 47.3287 54.422C47.3287 54.422 47.3287 54.4221 47.3286 54.4221C47.3286 54.4221 47.3286 54.422 47.3286 54.422C47.0942 54.6036 46.8591 54.7854 46.6238 54.9675C40.0334 60.0656 33.1774 65.3692 33 71.7248C33.1837 77.9312 37.7762 80 41.4502 80C43.6009 80 45.8557 78.7749 47.4946 76.7216Z" fill="black"/>
<path fill-rule="evenodd" clip-rule="evenodd" d="M12.4519 29.007C12.5627 29.0908 12.6744 29.1747 12.7864 29.2589C14.3251 30.4148 15.9323 31.6223 15.9734 33.0588C15.9293 34.5147 14.9141 35 14.0314 35C13.5147 35 12.923 34.7127 12.4824 34.2311C12.0887 34.7127 11.547 35 11.0303 35C10.1475 35 9.04414 34.5147 9 33.0588C9.04261 31.5679 10.6899 30.3238 12.2733 29.1279C12.3266 29.0876 12.3799 29.0473 12.4331 29.0071C12.4362 29.0047 12.4393 29.0023 12.4425 28.9999C12.4425 28.9999 12.4425 28.9999 12.4426 28.9999C12.4426 28.9999 12.4426 28.9999 12.4426 28.9999C12.4458 29.0023 12.4489 29.0047 12.4519 29.007Z" fill="black"/>
<path fill-rule="evenodd" clip-rule="evenodd" d="M82.5214 103.635C82.4107 103.557 82.299 103.478 82.1869 103.399C80.6483 102.312 79.0411 101.176 79 99.8254C79.0441 98.4564 80.0593 98 80.942 98C81.4587 98 82.0504 98.2702 82.4909 98.7231C82.8847 98.2702 83.4264 98 83.9431 98C84.8258 98 85.9293 98.4564 85.9734 99.8254C85.9308 101.227 84.2835 102.397 82.7001 103.522C82.6467 103.56 82.5934 103.598 82.5403 103.635C82.5372 103.638 82.534 103.64 82.5309 103.642C82.5309 103.642 82.5309 103.642 82.5308 103.642C82.5308 103.642 82.5308 103.642 82.5308 103.642C82.5276 103.64 82.5245 103.638 82.5214 103.635Z" fill="black"/>
</svg>
