<svg width="95" height="133" viewBox="0 0 95 133" fill="none" xmlns="http://www.w3.org/2000/svg">
<rect width="95" height="133" rx="4" fill="white"/>
<path d="M9.264 6.816C9.264 8.616 8.616 9.36 7.056 9.36H6.48V11.376H9.264V24H11.664V6H9.264V6.816ZM20.0297 24.24C23.1977 24.24 25.0937 22.296 25.0937 18.336V11.664C25.0937 7.728 23.1977 5.76 20.0297 5.76C16.8857 5.76 14.9657 7.728 14.9657 11.664V18.336C14.9657 22.296 16.8857 24.24 20.0297 24.24ZM20.0297 22.032C18.3497 22.032 17.3657 21.048 17.3657 18.336V11.664C17.3657 8.976 18.3737 7.968 20.0297 7.968C21.6857 7.968 22.6937 8.976 22.6937 11.664V18.336C22.6937 21.048 21.6857 22.032 20.0297 22.032Z" fill="black"/>
<path d="M85.736 125.184C85.736 123.384 86.384 122.64 87.944 122.64L88.52 122.64L88.52 120.624L85.736 120.624L85.736 108L83.336 108L83.336 126L85.736 126L85.736 125.184ZM74.9703 107.76C71.8023 107.76 69.9063 109.704 69.9063 113.664L69.9063 120.336C69.9063 124.272 71.8023 126.24 74.9703 126.24C78.1143 126.24 80.0343 124.272 80.0343 120.336L80.0343 113.664C80.0343 109.704 78.1143 107.76 74.9703 107.76ZM74.9703 109.968C76.6503 109.968 77.6343 110.952 77.6343 113.664L77.6343 120.336C77.6343 123.024 76.6263 124.032 74.9703 124.032C73.3143 124.032 72.3063 123.024 72.3063 120.336L72.3063 113.664C72.3063 110.952 73.3143 109.968 74.9703 109.968Z" fill="black"/>
<path fill-rule="evenodd" clip-rule="evenodd" d="M48.3189 66.7767C49.4121 65.2172 51.118 61.8801 51.118 59.5052C51.118 56.8565 49.6708 55 47.5657 55C45.1976 55 43.8819 56.8893 43.8819 59.5052C43.8819 61.4076 45.5171 64.8472 46.6115 66.5821C45.0078 65.4322 41.5999 63.6209 39.7757 63.6209C37.336 63.6209 35.574 65.0315 35.574 67.5707C35.574 69.8278 37.3055 71.3795 39.7757 71.3795C42.1019 71.3795 45.4924 69.3165 46.8711 68.1414L43.6141 79.9999C46.7182 78.8205 48.6891 78.7977 51.6541 79.9999L48.1494 68.1312C49.4342 69.2714 52.8464 71.3795 55.2243 71.3795C57.6946 71.3795 59.4261 69.8278 59.4261 67.5707C59.4261 65.0315 57.6641 63.6209 55.2243 63.6209C53.3302 63.6209 49.8022 65.619 48.3189 66.7767Z" fill="black"/>
<path fill-rule="evenodd" clip-rule="evenodd" d="M16.059 31.8261C16.3214 31.4516 16.7305 30.6511 16.7305 30.0813C16.7305 29.4456 16.3832 29 15.878 29C15.3096 29 14.9939 29.4534 14.9939 30.0813C14.9939 30.5377 15.386 31.3628 15.6487 31.7793C15.2636 31.5033 14.4461 31.0688 14.0084 31.0688C13.4229 31.0688 13 31.4074 13 32.0168C13 32.5585 13.4156 32.9309 14.0084 32.9309C14.5668 32.9309 15.3808 32.4356 15.7115 32.1536L14.9297 35C15.6747 34.717 16.1478 34.7115 16.8594 35L16.0182 32.1514C16.3266 32.425 17.1455 32.9309 17.7161 32.9309C18.309 32.9309 18.7246 32.5585 18.7246 32.0168C18.7246 31.4074 18.3017 31.0688 17.7161 31.0688C17.2616 31.0688 16.4151 31.5482 16.059 31.8261Z" fill="black"/>
<path fill-rule="evenodd" clip-rule="evenodd" d="M80.059 100.174C80.3214 100.548 80.7305 101.349 80.7305 101.919C80.7305 102.554 80.3832 103 79.878 103C79.3096 103 78.9939 102.547 78.9939 101.919C78.9939 101.462 79.386 100.637 79.6487 100.221C79.2636 100.497 78.4461 100.931 78.0084 100.931C77.4229 100.931 77 100.593 77 99.9832C77 99.4415 77.4156 99.0691 78.0084 99.0691C78.5668 99.0691 79.3808 99.5644 79.7115 99.8464L78.9297 97C79.6747 97.283 80.1478 97.2885 80.8594 97L80.0182 99.8486C80.3266 99.575 81.1455 99.0691 81.7161 99.0691C82.309 99.0691 82.7246 99.4415 82.7246 99.9832C82.7246 100.593 82.3017 100.931 81.7161 100.931C81.2616 100.931 80.4151 100.452 80.059 100.174Z" fill="black"/>
</svg>
