<svg width="95" height="133" viewBox="0 0 95 133" fill="none" xmlns="http://www.w3.org/2000/svg">
<rect width="95" height="133" rx="4" fill="white"/>
<path d="M9.264 6.816C9.264 8.616 8.616 9.36 7.056 9.36H6.48V11.376H9.264V24H11.664V6H9.264V6.816ZM20.0297 24.24C23.1977 24.24 25.0937 22.296 25.0937 18.336V11.664C25.0937 7.728 23.1977 5.76 20.0297 5.76C16.8857 5.76 14.9657 7.728 14.9657 11.664V18.336C14.9657 22.296 16.8857 24.24 20.0297 24.24ZM20.0297 22.032C18.3497 22.032 17.3657 21.048 17.3657 18.336V11.664C17.3657 8.976 18.3737 7.968 20.0297 7.968C21.6857 7.968 22.6937 8.976 22.6937 11.664V18.336C22.6937 21.048 21.6857 22.032 20.0297 22.032Z" fill="black"/>
<path d="M85.736 125.184C85.736 123.384 86.384 122.64 87.944 122.64L88.52 122.64L88.52 120.624L85.736 120.624L85.736 108L83.336 108L83.336 126L85.736 126L85.736 125.184ZM74.9703 107.76C71.8023 107.76 69.9063 109.704 69.9063 113.664L69.9063 120.336C69.9063 124.272 71.8023 126.24 74.9703 126.24C78.1143 126.24 80.0343 124.272 80.0343 120.336L80.0343 113.664C80.0343 109.704 78.1143 107.76 74.9703 107.76ZM74.9703 109.968C76.6503 109.968 77.6343 110.952 77.6343 113.664L77.6343 120.336C77.6343 123.024 76.6263 124.032 74.9703 124.032C73.3143 124.032 72.3063 123.024 72.3063 120.336L72.3063 113.664C72.3063 110.952 73.3143 109.968 74.9703 109.968Z" fill="black"/>
<path fill-rule="evenodd" clip-rule="evenodd" d="M47.53 57.2785C45.6964 55.2252 43.2335 54.0001 41.0828 54.0001C37.4088 54.0001 33.1837 56.0689 33 62.2754C33.1709 68.3992 39.8603 73.5464 46.2644 78.474C46.7441 78.8432 47.2223 79.2111 47.696 79.5781C47.696 79.5781 47.696 79.5781 47.696 79.578C47.6961 79.5781 47.6961 79.5781 47.6961 79.5781C47.9305 79.3965 48.1655 79.2147 48.4009 79.0326C54.9912 73.9345 61.8473 68.6309 62.0247 62.2754C61.841 56.0689 57.2485 54.0001 53.5745 54.0001C51.4238 54.0001 49.169 55.2252 47.53 57.2785Z" fill="#FF4545"/>
<path fill-rule="evenodd" clip-rule="evenodd" d="M15.5214 34.993C15.4107 34.9092 15.299 34.8253 15.1869 34.7411C13.6483 33.5852 12.0411 32.3777 12 30.9412C12.0441 29.4853 13.0593 29 13.942 29C14.4587 29 15.0504 29.2873 15.4909 29.7689C15.8847 29.2873 16.4264 29 16.9431 29C17.8258 29 18.9293 29.4853 18.9734 30.9412C18.9308 32.4321 17.2835 33.6762 15.7001 34.8721C15.6467 34.9124 15.5935 34.9527 15.5403 34.9929C15.5372 34.9953 15.5341 34.9977 15.5309 35.0001C15.5309 35.0001 15.5309 35.0001 15.5308 35.0001C15.5308 35.0001 15.5308 35.0001 15.5308 35.0001C15.5276 34.9977 15.5245 34.9953 15.5214 34.993Z" fill="#FF4545"/>
<path fill-rule="evenodd" clip-rule="evenodd" d="M79.452 98.0066C79.5627 98.0854 79.6744 98.1643 79.7864 98.2434C81.3251 99.3304 82.9323 100.466 82.9734 101.817C82.9293 103.186 81.9141 103.642 81.0314 103.642C80.5147 103.642 79.923 103.372 79.4824 102.919C79.0887 103.372 78.547 103.642 78.0303 103.642C77.1475 103.642 76.0441 103.186 76 101.817C76.0426 100.415 77.6899 99.2448 79.2733 98.1202C79.3267 98.0823 79.3799 98.0445 79.4331 98.0067C79.4362 98.0044 79.4393 98.0021 79.4425 97.9999C79.4425 97.9999 79.4425 97.9999 79.4426 97.9999C79.4426 97.9999 79.4426 97.9999 79.4426 97.9999C79.4458 98.0021 79.4489 98.0044 79.452 98.0066Z" fill="#FF4545"/>
</svg>
