<svg width="95" height="133" viewBox="0 0 95 133" fill="none" xmlns="http://www.w3.org/2000/svg">
<rect width="95" height="133" rx="4" fill="white"/>
<path d="M9.936 11.664C9.936 9.024 10.992 7.968 12.6 7.968C14.136 7.968 15.072 8.88 15.072 11.088V11.304H17.472V10.896C17.472 7.536 15.36 5.76 12.6 5.76C9.72 5.76 7.536 7.728 7.536 11.472V18.528C7.536 22.272 9.72 24.24 12.6 24.24C15.48 24.24 17.664 22.344 17.664 18.768V18.288C17.664 14.64 15.696 12.816 13.224 12.816C11.88 12.816 10.704 13.344 9.936 14.688V11.664ZM9.936 18.312C9.936 15.96 10.968 15.024 12.6 15.024C14.28 15.024 15.264 15.96 15.264 18.312V18.744C15.264 21.048 14.232 22.032 12.6 22.032C10.968 22.032 9.936 21.072 9.936 18.744V18.312Z" fill="black"/>
<path d="M85.064 120.336C85.064 122.976 84.008 124.032 82.4 124.032C80.864 124.032 79.928 123.12 79.928 120.912L79.928 120.696L77.528 120.696L77.528 121.104C77.528 124.464 79.64 126.24 82.4 126.24C85.28 126.24 87.464 124.272 87.464 120.528L87.464 113.472C87.464 109.728 85.28 107.76 82.4 107.76C79.52 107.76 77.336 109.656 77.336 113.232L77.336 113.712C77.336 117.36 79.304 119.184 81.776 119.184C83.12 119.184 84.296 118.656 85.064 117.312L85.064 120.336ZM85.064 113.688C85.064 116.04 84.032 116.976 82.4 116.976C80.72 116.976 79.736 116.04 79.736 113.688L79.736 113.256C79.736 110.952 80.768 109.968 82.4 109.968C84.032 109.968 85.064 110.928 85.064 113.256L85.064 113.688Z" fill="black"/>
<path fill-rule="evenodd" clip-rule="evenodd" d="M47.53 57.2785C45.6964 55.2252 43.2335 54.0001 41.0828 54.0001C37.4088 54.0001 33.1837 56.0689 33 62.2754C33.1709 68.3992 39.8603 73.5464 46.2644 78.474C46.7441 78.8432 47.2223 79.2111 47.696 79.5781C47.696 79.5781 47.696 79.5781 47.696 79.578C47.6961 79.5781 47.6961 79.5781 47.6961 79.5781C47.9305 79.3965 48.1655 79.2147 48.4009 79.0326C54.9912 73.9345 61.8473 68.6309 62.0247 62.2754C61.841 56.0689 57.2485 54.0001 53.5745 54.0001C51.4238 54.0001 49.169 55.2252 47.53 57.2785Z" fill="#FF4545"/>
<path fill-rule="evenodd" clip-rule="evenodd" d="M12.5214 34.9928C12.4107 34.9091 12.299 34.8252 12.1869 34.741C10.6483 33.5851 9.04106 32.3776 9 30.9411C9.04414 29.4852 10.0593 28.9999 10.942 28.9999C11.4587 28.9999 12.0504 29.2872 12.4909 29.7688C12.8847 29.2872 13.4264 28.9999 13.9431 28.9999C14.8258 28.9999 15.9293 29.4852 15.9734 30.9411C15.9308 32.432 14.2835 33.6761 12.7001 34.872C12.6467 34.9123 12.5935 34.9526 12.5403 34.9928C12.5372 34.9952 12.5341 34.9976 12.5309 35C12.5309 35 12.5309 35 12.5308 34.9999C12.5308 35 12.5308 35 12.5308 35C12.5276 34.9976 12.5245 34.9952 12.5214 34.9928Z" fill="#FF4545"/>
<path fill-rule="evenodd" clip-rule="evenodd" d="M82.452 98.0068C82.5627 98.0855 82.6744 98.1644 82.7864 98.2436C84.3251 99.3305 85.9323 100.466 85.9734 101.817C85.9293 103.186 84.9141 103.642 84.0314 103.642C83.5147 103.642 82.923 103.372 82.4824 102.919C82.0887 103.372 81.547 103.642 81.0303 103.642C80.1475 103.642 79.0441 103.186 79 101.817C79.0426 100.415 80.6899 99.2449 82.2733 98.1203C82.3267 98.0824 82.3799 98.0446 82.4331 98.0068C82.4362 98.0045 82.4393 98.0023 82.4425 98C82.4425 98 82.4425 98 82.4426 98.0001C82.4426 98 82.4426 98 82.4426 98C82.4458 98.0023 82.4489 98.0045 82.452 98.0068Z" fill="#FF4545"/>
</svg>
