<svg width="95" height="133" viewBox="0 0 95 133" fill="none" xmlns="http://www.w3.org/2000/svg">
<rect width="95" height="133" rx="4" fill="white"/>
<path d="M7.2 18.36V19.416C7.2 22.56 9.504 24.24 12.36 24.24C15.216 24.24 17.52 22.56 17.52 19.416V18.36C17.52 16.416 16.464 15.072 14.904 14.4C16.152 13.752 16.992 12.576 16.992 10.896V10.032C16.992 7.248 14.928 5.76 12.36 5.76C9.792 5.76 7.728 7.248 7.728 10.032V10.896C7.728 12.576 8.568 13.752 9.816 14.4C8.256 15.072 7.2 16.416 7.2 18.36ZM10.128 10.248C10.128 8.64 11.064 7.968 12.36 7.968C13.68 7.968 14.592 8.64 14.592 10.248V10.872C14.592 12.6 13.728 13.344 12.36 13.344C11.016 13.344 10.128 12.6 10.128 10.872V10.248ZM9.6 18.384C9.6 16.368 10.704 15.552 12.36 15.552C14.04 15.552 15.12 16.368 15.12 18.384V19.2C15.12 21.168 14.04 22.032 12.36 22.032C10.704 22.032 9.6 21.168 9.6 19.2V18.384Z" fill="black"/>
<path d="M87.8 113.64L87.8 112.584C87.8 109.44 85.496 107.76 82.64 107.76C79.784 107.76 77.48 109.44 77.48 112.584L77.48 113.64C77.48 115.584 78.536 116.928 80.096 117.6C78.848 118.248 78.008 119.424 78.008 121.104L78.008 121.968C78.008 124.752 80.072 126.24 82.64 126.24C85.208 126.24 87.272 124.752 87.272 121.968L87.272 121.104C87.272 119.424 86.432 118.248 85.184 117.6C86.744 116.928 87.8 115.584 87.8 113.64ZM84.872 121.752C84.872 123.36 83.936 124.032 82.64 124.032C81.32 124.032 80.408 123.36 80.408 121.752L80.408 121.128C80.408 119.4 81.272 118.656 82.64 118.656C83.984 118.656 84.872 119.4 84.872 121.128L84.872 121.752ZM85.4 113.616C85.4 115.632 84.296 116.448 82.64 116.448C80.96 116.448 79.88 115.632 79.88 113.616L79.88 112.8C79.88 110.832 80.96 109.968 82.64 109.968C84.296 109.968 85.4 110.832 85.4 112.8L85.4 113.616Z" fill="black"/>
<path fill-rule="evenodd" clip-rule="evenodd" d="M48.3189 66.7767C49.4121 65.2172 51.118 61.8801 51.118 59.5052C51.118 56.8565 49.6708 55 47.5657 55C45.1976 55 43.8819 56.8893 43.8819 59.5052C43.8819 61.4076 45.5171 64.8472 46.6115 66.5821C45.0078 65.4322 41.5999 63.6209 39.7757 63.6209C37.336 63.6209 35.574 65.0315 35.574 67.5707C35.574 69.8278 37.3055 71.3795 39.7757 71.3795C42.1019 71.3795 45.4924 69.3165 46.8711 68.1414L43.6141 79.9999C46.7182 78.8205 48.6891 78.7977 51.6541 79.9999L48.1494 68.1312C49.4342 69.2714 52.8464 71.3795 55.2243 71.3795C57.6946 71.3795 59.4261 69.8278 59.4261 67.5707C59.4261 65.0315 57.6641 63.6209 55.2243 63.6209C53.3302 63.6209 49.8022 65.619 48.3189 66.7767Z" fill="black"/>
<path fill-rule="evenodd" clip-rule="evenodd" d="M12.059 31.8261C12.3214 31.4516 12.7305 30.6511 12.7305 30.0813C12.7305 29.4456 12.3832 29 11.878 29C11.3096 29 10.9939 29.4534 10.9939 30.0813C10.9939 30.5377 11.386 31.3628 11.6487 31.7793C11.2636 31.5033 10.4461 31.0688 10.0084 31.0688C9.42289 31.0688 9 31.4074 9 32.0168C9 32.5585 9.41556 32.9309 10.0084 32.9309C10.5668 32.9309 11.3808 32.4356 11.7115 32.1536L10.9297 35C11.6747 34.717 12.1478 34.7115 12.8594 35L12.0182 32.1514C12.3266 32.425 13.1455 32.9309 13.7161 32.9309C14.309 32.9309 14.7246 32.5585 14.7246 32.0168C14.7246 31.4074 14.3017 31.0688 13.7161 31.0688C13.2616 31.0688 12.4151 31.5482 12.059 31.8261Z" fill="black"/>
<path fill-rule="evenodd" clip-rule="evenodd" d="M83.059 100.174C83.3214 100.548 83.7305 101.349 83.7305 101.919C83.7305 102.554 83.3832 103 82.878 103C82.3096 103 81.9939 102.547 81.9939 101.919C81.9939 101.462 82.386 100.637 82.6487 100.221C82.2636 100.497 81.4461 100.931 81.0084 100.931C80.4229 100.931 80 100.593 80 99.9832C80 99.4415 80.4156 99.0691 81.0084 99.0691C81.5668 99.0691 82.3808 99.5644 82.7115 99.8464L81.9297 97C82.6747 97.283 83.1478 97.2885 83.8594 97L83.0182 99.8486C83.3266 99.575 84.1455 99.0691 84.7161 99.0691C85.309 99.0691 85.7246 99.4415 85.7246 99.9832C85.7246 100.593 85.3017 100.931 84.7161 100.931C84.2616 100.931 83.4151 100.452 83.059 100.174Z" fill="black"/>
</svg>
