<svg width="95" height="133" viewBox="0 0 95 133" fill="none" xmlns="http://www.w3.org/2000/svg">
<rect width="95" height="133" rx="4" fill="white"/>
<path d="M15.264 18.336C15.264 20.976 14.208 22.032 12.6 22.032C11.064 22.032 10.128 21.12 10.128 18.912V18.696H7.728V19.104C7.728 22.464 9.84 24.24 12.6 24.24C15.48 24.24 17.664 22.272 17.664 18.528V11.472C17.664 7.728 15.48 5.76 12.6 5.76C9.72 5.76 7.536 7.656 7.536 11.232V11.712C7.536 15.36 9.504 17.184 11.976 17.184C13.32 17.184 14.496 16.656 15.264 15.312V18.336ZM15.264 11.688C15.264 14.04 14.232 14.976 12.6 14.976C10.92 14.976 9.936 14.04 9.936 11.688V11.256C9.936 8.952 10.968 7.968 12.6 7.968C14.232 7.968 15.264 8.928 15.264 11.256V11.688Z" fill="black"/>
<path d="M79.736 113.664C79.736 111.024 80.792 109.968 82.4 109.968C83.936 109.968 84.872 110.88 84.872 113.088L84.872 113.304L87.272 113.304L87.272 112.896C87.272 109.536 85.16 107.76 82.4 107.76C79.52 107.76 77.336 109.728 77.336 113.472L77.336 120.528C77.336 124.272 79.52 126.24 82.4 126.24C85.28 126.24 87.464 124.344 87.464 120.768L87.464 120.288C87.464 116.64 85.496 114.816 83.024 114.816C81.68 114.816 80.504 115.344 79.736 116.688L79.736 113.664ZM79.736 120.312C79.736 117.96 80.768 117.024 82.4 117.024C84.08 117.024 85.064 117.96 85.064 120.312L85.064 120.744C85.064 123.048 84.032 124.032 82.4 124.032C80.768 124.032 79.736 123.072 79.736 120.744L79.736 120.312Z" fill="black"/>
<path fill-rule="evenodd" clip-rule="evenodd" d="M47.4946 76.7216C49.3283 78.7749 51.7912 80 53.9419 80C57.6159 80 61.841 77.9312 62.0247 71.7248C61.8538 65.601 55.1644 60.4538 48.7603 55.5261C48.2805 55.1569 47.8024 54.789 47.3287 54.422C47.3287 54.422 47.3287 54.4221 47.3286 54.4221C47.3286 54.4221 47.3286 54.422 47.3286 54.422C47.0942 54.6036 46.8591 54.7854 46.6238 54.9675C40.0334 60.0656 33.1774 65.3692 33 71.7248C33.1837 77.9312 37.7762 80 41.4502 80C43.6009 80 45.8557 78.7749 47.4946 76.7216Z" fill="black"/>
<path fill-rule="evenodd" clip-rule="evenodd" d="M12.4519 29.007C12.5627 29.0908 12.6744 29.1747 12.7864 29.2589C14.3251 30.4148 15.9323 31.6223 15.9734 33.0588C15.9293 34.5147 14.9141 35 14.0314 35C13.5147 35 12.923 34.7127 12.4824 34.2311C12.0887 34.7127 11.547 35 11.0303 35C10.1475 35 9.04414 34.5147 9 33.0588C9.04261 31.5679 10.6899 30.3238 12.2733 29.1279C12.3266 29.0876 12.3799 29.0473 12.4331 29.0071C12.4362 29.0047 12.4393 29.0023 12.4425 28.9999C12.4425 28.9999 12.4425 28.9999 12.4426 28.9999C12.4426 28.9999 12.4426 28.9999 12.4426 28.9999C12.4458 29.0023 12.4489 29.0047 12.4519 29.007Z" fill="black"/>
<path fill-rule="evenodd" clip-rule="evenodd" d="M82.5214 103.635C82.4107 103.557 82.299 103.478 82.1869 103.399C80.6483 102.312 79.0411 101.176 79 99.8254C79.0441 98.4564 80.0593 98 80.942 98C81.4587 98 82.0504 98.2702 82.4909 98.7231C82.8847 98.2702 83.4264 98 83.9431 98C84.8258 98 85.9293 98.4564 85.9734 99.8254C85.9308 101.227 84.2835 102.397 82.7001 103.522C82.6467 103.56 82.5934 103.598 82.5403 103.635C82.5372 103.638 82.534 103.64 82.5309 103.642C82.5309 103.642 82.5309 103.642 82.5308 103.642C82.5308 103.642 82.5308 103.642 82.5308 103.642C82.5276 103.64 82.5245 103.638 82.5214 103.635Z" fill="black"/>
</svg>
