<svg width="95" height="133" viewBox="0 0 95 133" fill="none" xmlns="http://www.w3.org/2000/svg">
<rect width="95" height="133" rx="4" fill="white"/>
<path d="M10.32 6L6.288 24H8.712L9.648 19.584H14.592L15.528 24H17.952L13.92 6H10.32ZM10.128 17.376L12.12 7.92L14.112 17.376H10.128Z" fill="black"/>
<path d="M84.68 126L88.712 108L86.288 108L85.352 112.416L80.408 112.416L79.472 108L77.048 108L81.08 126L84.68 126ZM84.872 114.624L82.88 124.08L80.888 114.624L84.872 114.624Z" fill="black"/>
<path d="M48 54.0002L58.2705 66.7817L48 79.4994L37.7295 66.7817L48 54.0002Z" fill="#FF4545"/>
<path d="M12.3748 28L15.0933 31.3832L12.3748 34.7495L9.6562 31.3832L12.3748 28Z" fill="#FF4545"/>
<path d="M82.3748 97L85.0933 100.383L82.3748 103.75L79.6562 100.383L82.3748 97Z" fill="#FF4545"/>
</svg>
