<svg width="95" height="133" viewBox="0 0 95 133" fill="none" xmlns="http://www.w3.org/2000/svg">
<rect width="95" height="133" rx="4" fill="white"/>
<path d="M14.208 6V19.056C14.208 21.24 13.248 22.032 11.784 22.032C10.344 22.032 9.36 21.24 9.36 19.056V17.712H6.96V19.248C6.96 22.584 9.072 24.24 11.784 24.24C14.496 24.24 16.608 22.584 16.608 19.248V6H14.208Z" fill="black"/>
<path d="M80.792 126L80.792 112.944C80.792 110.76 81.752 109.968 83.216 109.968C84.656 109.968 85.64 110.76 85.64 112.944L85.64 114.288L88.04 114.288L88.04 112.752C88.04 109.416 85.928 107.76 83.216 107.76C80.504 107.76 78.392 109.416 78.392 112.752L78.392 126L80.792 126Z" fill="black"/>
<path d="M48 54.0002L58.2705 66.7817L48 79.4994L37.7295 66.7817L48 54.0002Z" fill="#FF4545"/>
<path d="M12.3748 28L15.0933 31.3832L12.3748 34.7495L9.6562 31.3832L12.3748 28Z" fill="#FF4545"/>
<path d="M82.3748 97L85.0933 100.383L82.3748 103.75L79.6562 100.383L82.3748 97Z" fill="#FF4545"/>
</svg>
