<svg width="95" height="133" viewBox="0 0 95 133" fill="none" xmlns="http://www.w3.org/2000/svg">
<rect width="95" height="133" rx="4" fill="white"/>
<path d="M12.36 24.24C13.584 24.24 14.688 23.784 15.144 22.68L16.104 24H18.432L16.848 21.816C17.76 21.048 18.144 19.728 18.144 18.096V11.904C18.144 7.8 16.152 5.76 12.84 5.76C9.528 5.76 7.536 7.8 7.536 11.904V18.096C7.536 22.2 9.528 24.24 12.36 24.24ZM12.84 22.032C11.016 22.032 9.936 20.976 9.936 18.096V11.904C9.936 9.024 11.04 7.968 12.84 7.968C14.664 7.968 15.744 9.024 15.744 11.904V18.096C15.744 18.96 15.648 19.656 15.456 20.208L13.704 17.76H11.304L14.28 21.72C13.872 21.936 13.392 22.032 12.84 22.032Z" fill="black"/>
<path d="M82.64 107.76C81.416 107.76 80.312 108.216 79.856 109.32L78.896 108L76.568 108L78.152 110.184C77.24 110.952 76.856 112.272 76.856 113.904L76.856 120.096C76.856 124.2 78.848 126.24 82.16 126.24C85.472 126.24 87.464 124.2 87.464 120.096L87.464 113.904C87.464 109.8 85.472 107.76 82.64 107.76ZM82.16 109.968C83.984 109.968 85.064 111.024 85.064 113.904L85.064 120.096C85.064 122.976 83.96 124.032 82.16 124.032C80.336 124.032 79.256 122.976 79.256 120.096L79.256 113.904C79.256 113.04 79.352 112.344 79.544 111.792L81.296 114.24L83.696 114.24L80.72 110.28C81.128 110.064 81.608 109.968 82.16 109.968Z" fill="black"/>
<path d="M48 54.0002L58.2705 66.7817L48 79.4994L37.7295 66.7817L48 54.0002Z" fill="#FF4545"/>
<path d="M12.3748 28L15.0933 31.3832L12.3748 34.7495L9.6562 31.3832L12.3748 28Z" fill="#FF4545"/>
<path d="M82.3748 97L85.0933 100.383L82.3748 103.75L79.6562 100.383L82.3748 97Z" fill="#FF4545"/>
</svg>
