<svg width="95" height="133" viewBox="0 0 95 133" fill="none" xmlns="http://www.w3.org/2000/svg">
<rect width="95" height="133" rx="4" fill="white"/>
<path d="M9.264 6.816C9.264 8.616 8.616 9.36 7.056 9.36H6.48V11.376H9.264V24H11.664V6H9.264V6.816ZM20.0297 24.24C23.1977 24.24 25.0937 22.296 25.0937 18.336V11.664C25.0937 7.728 23.1977 5.76 20.0297 5.76C16.8857 5.76 14.9657 7.728 14.9657 11.664V18.336C14.9657 22.296 16.8857 24.24 20.0297 24.24ZM20.0297 22.032C18.3497 22.032 17.3657 21.048 17.3657 18.336V11.664C17.3657 8.976 18.3737 7.968 20.0297 7.968C21.6857 7.968 22.6937 8.976 22.6937 11.664V18.336C22.6937 21.048 21.6857 22.032 20.0297 22.032Z" fill="black"/>
<path d="M85.736 125.184C85.736 123.384 86.384 122.64 87.944 122.64L88.52 122.64L88.52 120.624L85.736 120.624L85.736 108L83.336 108L83.336 126L85.736 126L85.736 125.184ZM74.9703 107.76C71.8023 107.76 69.9063 109.704 69.9063 113.664L69.9063 120.336C69.9063 124.272 71.8023 126.24 74.9703 126.24C78.1143 126.24 80.0343 124.272 80.0343 120.336L80.0343 113.664C80.0343 109.704 78.1143 107.76 74.9703 107.76ZM74.9703 109.968C76.6503 109.968 77.6343 110.952 77.6343 113.664L77.6343 120.336C77.6343 123.024 76.6263 124.032 74.9703 124.032C73.3143 124.032 72.3063 123.024 72.3063 120.336L72.3063 113.664C72.3063 110.952 73.3143 109.968 74.9703 109.968Z" fill="black"/>
<path d="M48 54.0002L58.2705 66.7817L48 79.4994L37.7295 66.7817L48 54.0002Z" fill="#FF4545"/>
<path d="M15.3748 28L18.0933 31.3832L15.3748 34.7495L12.6562 31.3832L15.3748 28Z" fill="#FF4545"/>
<path d="M79.3748 97L82.0933 100.383L79.3748 103.75L76.6562 100.383L79.3748 97Z" fill="#FF4545"/>
</svg>
