<svg width="95" height="133" viewBox="0 0 95 133" fill="none" xmlns="http://www.w3.org/2000/svg">
<rect width="95" height="133" rx="4" fill="white"/>
<path d="M9.264 6.816C9.264 8.616 8.616 9.36 7.056 9.36H6.48V11.376H9.264V24H11.664V6H9.264V6.816ZM20.0297 24.24C23.1977 24.24 25.0937 22.296 25.0937 18.336V11.664C25.0937 7.728 23.1977 5.76 20.0297 5.76C16.8857 5.76 14.9657 7.728 14.9657 11.664V18.336C14.9657 22.296 16.8857 24.24 20.0297 24.24ZM20.0297 22.032C18.3497 22.032 17.3657 21.048 17.3657 18.336V11.664C17.3657 8.976 18.3737 7.968 20.0297 7.968C21.6857 7.968 22.6937 8.976 22.6937 11.664V18.336C22.6937 21.048 21.6857 22.032 20.0297 22.032Z" fill="black"/>
<path d="M85.736 125.184C85.736 123.384 86.384 122.64 87.944 122.64L88.52 122.64L88.52 120.624L85.736 120.624L85.736 108L83.336 108L83.336 126L85.736 126L85.736 125.184ZM74.9703 107.76C71.8023 107.76 69.9063 109.704 69.9063 113.664L69.9063 120.336C69.9063 124.272 71.8023 126.24 74.9703 126.24C78.1143 126.24 80.0343 124.272 80.0343 120.336L80.0343 113.664C80.0343 109.704 78.1143 107.76 74.9703 107.76ZM74.9703 109.968C76.6503 109.968 77.6343 110.952 77.6343 113.664L77.6343 120.336C77.6343 123.024 76.6263 124.032 74.9703 124.032C73.3143 124.032 72.3063 123.024 72.3063 120.336L72.3063 113.664C72.3063 110.952 73.3143 109.968 74.9703 109.968Z" fill="black"/>
<path fill-rule="evenodd" clip-rule="evenodd" d="M47.4946 76.7216C49.3283 78.7749 51.7912 80 53.9419 80C57.6159 80 61.841 77.9312 62.0247 71.7248C61.8538 65.601 55.1644 60.4538 48.7603 55.5261C48.2805 55.1569 47.8024 54.789 47.3287 54.422C47.3287 54.422 47.3287 54.4221 47.3286 54.4221C47.3286 54.4221 47.3286 54.422 47.3286 54.422C47.0942 54.6036 46.8591 54.7854 46.6238 54.9675C40.0334 60.0656 33.1774 65.3692 33 71.7248C33.1837 77.9312 37.7762 80 41.4502 80C43.6009 80 45.8557 78.7749 47.4946 76.7216Z" fill="black"/>
<path fill-rule="evenodd" clip-rule="evenodd" d="M15.4519 29.007C15.5627 29.0908 15.6744 29.1747 15.7864 29.2589C17.3251 30.4148 18.9323 31.6223 18.9734 33.0588C18.9293 34.5147 17.9141 35 17.0314 35C16.5147 35 15.923 34.7127 15.4824 34.2311C15.0887 34.7127 14.547 35 14.0303 35C13.1475 35 12.0441 34.5147 12 33.0588C12.0426 31.5679 13.6899 30.3238 15.2733 29.1279C15.3266 29.0876 15.3799 29.0473 15.4331 29.0071C15.4362 29.0047 15.4393 29.0023 15.4425 28.9999C15.4425 28.9999 15.4425 28.9999 15.4426 28.9999C15.4426 28.9999 15.4426 28.9999 15.4426 28.9999C15.4458 29.0023 15.4489 29.0047 15.4519 29.007Z" fill="black"/>
<path fill-rule="evenodd" clip-rule="evenodd" d="M79.5214 103.635C79.4107 103.557 79.299 103.478 79.1869 103.399C77.6483 102.312 76.0411 101.176 76 99.8254C76.0441 98.4564 77.0593 98 77.942 98C78.4587 98 79.0504 98.2702 79.4909 98.7231C79.8847 98.2702 80.4264 98 80.9431 98C81.8258 98 82.9293 98.4564 82.9734 99.8254C82.9308 101.227 81.2835 102.397 79.7001 103.522C79.6467 103.56 79.5934 103.598 79.5403 103.635C79.5372 103.638 79.534 103.64 79.5309 103.642C79.5309 103.642 79.5309 103.642 79.5308 103.642C79.5308 103.642 79.5308 103.642 79.5308 103.642C79.5276 103.64 79.5245 103.638 79.5214 103.635Z" fill="black"/>
</svg>
