<svg width="95" height="133" viewBox="0 0 95 133" fill="none" xmlns="http://www.w3.org/2000/svg">
<rect width="95" height="133" rx="4" fill="white"/>
<path d="M7.2 18.36V19.416C7.2 22.56 9.504 24.24 12.36 24.24C15.216 24.24 17.52 22.56 17.52 19.416V18.36C17.52 16.416 16.464 15.072 14.904 14.4C16.152 13.752 16.992 12.576 16.992 10.896V10.032C16.992 7.248 14.928 5.76 12.36 5.76C9.792 5.76 7.728 7.248 7.728 10.032V10.896C7.728 12.576 8.568 13.752 9.816 14.4C8.256 15.072 7.2 16.416 7.2 18.36ZM10.128 10.248C10.128 8.64 11.064 7.968 12.36 7.968C13.68 7.968 14.592 8.64 14.592 10.248V10.872C14.592 12.6 13.728 13.344 12.36 13.344C11.016 13.344 10.128 12.6 10.128 10.872V10.248ZM9.6 18.384C9.6 16.368 10.704 15.552 12.36 15.552C14.04 15.552 15.12 16.368 15.12 18.384V19.2C15.12 21.168 14.04 22.032 12.36 22.032C10.704 22.032 9.6 21.168 9.6 19.2V18.384Z" fill="black"/>
<path d="M87.8 113.64L87.8 112.584C87.8 109.44 85.496 107.76 82.64 107.76C79.784 107.76 77.48 109.44 77.48 112.584L77.48 113.64C77.48 115.584 78.536 116.928 80.096 117.6C78.848 118.248 78.008 119.424 78.008 121.104L78.008 121.968C78.008 124.752 80.072 126.24 82.64 126.24C85.208 126.24 87.272 124.752 87.272 121.968L87.272 121.104C87.272 119.424 86.432 118.248 85.184 117.6C86.744 116.928 87.8 115.584 87.8 113.64ZM84.872 121.752C84.872 123.36 83.936 124.032 82.64 124.032C81.32 124.032 80.408 123.36 80.408 121.752L80.408 121.128C80.408 119.4 81.272 118.656 82.64 118.656C83.984 118.656 84.872 119.4 84.872 121.128L84.872 121.752ZM85.4 113.616C85.4 115.632 84.296 116.448 82.64 116.448C80.96 116.448 79.88 115.632 79.88 113.616L79.88 112.8C79.88 110.832 80.96 109.968 82.64 109.968C84.296 109.968 85.4 110.832 85.4 112.8L85.4 113.616Z" fill="black"/>
<path d="M48 54.0002L58.2705 66.7817L48 79.4994L37.7295 66.7817L48 54.0002Z" fill="#FF4545"/>
<path d="M12.3748 28L15.0933 31.3832L12.3748 34.7495L9.6562 31.3832L12.3748 28Z" fill="#FF4545"/>
<path d="M82.3748 97L85.0933 100.383L82.3748 103.75L79.6562 100.383L82.3748 97Z" fill="#FF4545"/>
</svg>
