<svg width="95" height="133" viewBox="0 0 95 133" fill="none" xmlns="http://www.w3.org/2000/svg">
<rect width="95" height="133" rx="4" fill="white"/>
<path d="M7.2 18.36V19.416C7.2 22.56 9.504 24.24 12.36 24.24C15.216 24.24 17.52 22.56 17.52 19.416V18.36C17.52 16.416 16.464 15.072 14.904 14.4C16.152 13.752 16.992 12.576 16.992 10.896V10.032C16.992 7.248 14.928 5.76 12.36 5.76C9.792 5.76 7.728 7.248 7.728 10.032V10.896C7.728 12.576 8.568 13.752 9.816 14.4C8.256 15.072 7.2 16.416 7.2 18.36ZM10.128 10.248C10.128 8.64 11.064 7.968 12.36 7.968C13.68 7.968 14.592 8.64 14.592 10.248V10.872C14.592 12.6 13.728 13.344 12.36 13.344C11.016 13.344 10.128 12.6 10.128 10.872V10.248ZM9.6 18.384C9.6 16.368 10.704 15.552 12.36 15.552C14.04 15.552 15.12 16.368 15.12 18.384V19.2C15.12 21.168 14.04 22.032 12.36 22.032C10.704 22.032 9.6 21.168 9.6 19.2V18.384Z" fill="black"/>
<path d="M87.8 113.64L87.8 112.584C87.8 109.44 85.496 107.76 82.64 107.76C79.784 107.76 77.48 109.44 77.48 112.584L77.48 113.64C77.48 115.584 78.536 116.928 80.096 117.6C78.848 118.248 78.008 119.424 78.008 121.104L78.008 121.968C78.008 124.752 80.072 126.24 82.64 126.24C85.208 126.24 87.272 124.752 87.272 121.968L87.272 121.104C87.272 119.424 86.432 118.248 85.184 117.6C86.744 116.928 87.8 115.584 87.8 113.64ZM84.872 121.752C84.872 123.36 83.936 124.032 82.64 124.032C81.32 124.032 80.408 123.36 80.408 121.752L80.408 121.128C80.408 119.4 81.272 118.656 82.64 118.656C83.984 118.656 84.872 119.4 84.872 121.128L84.872 121.752ZM85.4 113.616C85.4 115.632 84.296 116.448 82.64 116.448C80.96 116.448 79.88 115.632 79.88 113.616L79.88 112.8C79.88 110.832 80.96 109.968 82.64 109.968C84.296 109.968 85.4 110.832 85.4 112.8L85.4 113.616Z" fill="black"/>
<path fill-rule="evenodd" clip-rule="evenodd" d="M47.53 57.2785C45.6964 55.2252 43.2335 54.0001 41.0828 54.0001C37.4088 54.0001 33.1837 56.0689 33 62.2754C33.1709 68.3992 39.8603 73.5464 46.2644 78.474C46.7441 78.8432 47.2223 79.2111 47.696 79.5781C47.696 79.5781 47.696 79.5781 47.696 79.578C47.6961 79.5781 47.6961 79.5781 47.6961 79.5781C47.9305 79.3965 48.1655 79.2147 48.4009 79.0326C54.9912 73.9345 61.8473 68.6309 62.0247 62.2754C61.841 56.0689 57.2485 54.0001 53.5745 54.0001C51.4238 54.0001 49.169 55.2252 47.53 57.2785Z" fill="#FF4545"/>
<path fill-rule="evenodd" clip-rule="evenodd" d="M12.5214 34.9928C12.4107 34.9091 12.299 34.8252 12.1869 34.741C10.6483 33.5851 9.04106 32.3776 9 30.9411C9.04414 29.4852 10.0593 28.9999 10.942 28.9999C11.4587 28.9999 12.0504 29.2872 12.4909 29.7688C12.8847 29.2872 13.4264 28.9999 13.9431 28.9999C14.8258 28.9999 15.9293 29.4852 15.9734 30.9411C15.9308 32.432 14.2835 33.6761 12.7001 34.872C12.6467 34.9123 12.5935 34.9526 12.5403 34.9928C12.5372 34.9952 12.5341 34.9976 12.5309 35C12.5309 35 12.5309 35 12.5308 34.9999C12.5308 35 12.5308 35 12.5308 35C12.5276 34.9976 12.5245 34.9952 12.5214 34.9928Z" fill="#FF4545"/>
<path fill-rule="evenodd" clip-rule="evenodd" d="M82.452 98.0068C82.5627 98.0855 82.6744 98.1644 82.7864 98.2436C84.3251 99.3305 85.9323 100.466 85.9734 101.817C85.9293 103.186 84.9141 103.642 84.0314 103.642C83.5147 103.642 82.923 103.372 82.4824 102.919C82.0887 103.372 81.547 103.642 81.0303 103.642C80.1475 103.642 79.0441 103.186 79 101.817C79.0426 100.415 80.6899 99.2449 82.2733 98.1203C82.3267 98.0824 82.3799 98.0446 82.4331 98.0068C82.4362 98.0045 82.4393 98.0023 82.4425 98C82.4425 98 82.4425 98 82.4426 98.0001C82.4426 98 82.4426 98 82.4426 98C82.4458 98.0023 82.4489 98.0045 82.452 98.0068Z" fill="#FF4545"/>
</svg>
