<svg width="95" height="133" viewBox="0 0 95 133" fill="none" xmlns="http://www.w3.org/2000/svg">
<rect width="95" height="133" rx="4" fill="white"/>
<path d="M15.264 18.336C15.264 20.976 14.208 22.032 12.6 22.032C11.064 22.032 10.128 21.12 10.128 18.912V18.696H7.728V19.104C7.728 22.464 9.84 24.24 12.6 24.24C15.48 24.24 17.664 22.272 17.664 18.528V11.472C17.664 7.728 15.48 5.76 12.6 5.76C9.72 5.76 7.536 7.656 7.536 11.232V11.712C7.536 15.36 9.504 17.184 11.976 17.184C13.32 17.184 14.496 16.656 15.264 15.312V18.336ZM15.264 11.688C15.264 14.04 14.232 14.976 12.6 14.976C10.92 14.976 9.936 14.04 9.936 11.688V11.256C9.936 8.952 10.968 7.968 12.6 7.968C14.232 7.968 15.264 8.928 15.264 11.256V11.688Z" fill="black"/>
<path d="M79.736 113.664C79.736 111.024 80.792 109.968 82.4 109.968C83.936 109.968 84.872 110.88 84.872 113.088L84.872 113.304L87.272 113.304L87.272 112.896C87.272 109.536 85.16 107.76 82.4 107.76C79.52 107.76 77.336 109.728 77.336 113.472L77.336 120.528C77.336 124.272 79.52 126.24 82.4 126.24C85.28 126.24 87.464 124.344 87.464 120.768L87.464 120.288C87.464 116.64 85.496 114.816 83.024 114.816C81.68 114.816 80.504 115.344 79.736 116.688L79.736 113.664ZM79.736 120.312C79.736 117.96 80.768 117.024 82.4 117.024C84.08 117.024 85.064 117.96 85.064 120.312L85.064 120.744C85.064 123.048 84.032 124.032 82.4 124.032C80.768 124.032 79.736 123.072 79.736 120.744L79.736 120.312Z" fill="black"/>
<path fill-rule="evenodd" clip-rule="evenodd" d="M48.3189 66.7767C49.4121 65.2172 51.118 61.8801 51.118 59.5052C51.118 56.8565 49.6708 55 47.5657 55C45.1976 55 43.8819 56.8893 43.8819 59.5052C43.8819 61.4076 45.5171 64.8472 46.6115 66.5821C45.0078 65.4322 41.5999 63.6209 39.7757 63.6209C37.336 63.6209 35.574 65.0315 35.574 67.5707C35.574 69.8278 37.3055 71.3795 39.7757 71.3795C42.1019 71.3795 45.4924 69.3165 46.8711 68.1414L43.6141 79.9999C46.7182 78.8205 48.6891 78.7977 51.6541 79.9999L48.1494 68.1312C49.4342 69.2714 52.8464 71.3795 55.2243 71.3795C57.6946 71.3795 59.4261 69.8278 59.4261 67.5707C59.4261 65.0315 57.6641 63.6209 55.2243 63.6209C53.3302 63.6209 49.8022 65.619 48.3189 66.7767Z" fill="black"/>
<path fill-rule="evenodd" clip-rule="evenodd" d="M12.059 31.8261C12.3214 31.4516 12.7305 30.6511 12.7305 30.0813C12.7305 29.4456 12.3832 29 11.878 29C11.3096 29 10.9939 29.4534 10.9939 30.0813C10.9939 30.5377 11.386 31.3628 11.6487 31.7793C11.2636 31.5033 10.4461 31.0688 10.0084 31.0688C9.42289 31.0688 9 31.4074 9 32.0168C9 32.5585 9.41556 32.9309 10.0084 32.9309C10.5668 32.9309 11.3808 32.4356 11.7115 32.1536L10.9297 35C11.6747 34.717 12.1478 34.7115 12.8594 35L12.0182 32.1514C12.3266 32.425 13.1455 32.9309 13.7161 32.9309C14.309 32.9309 14.7246 32.5585 14.7246 32.0168C14.7246 31.4074 14.3017 31.0688 13.7161 31.0688C13.2616 31.0688 12.4151 31.5482 12.059 31.8261Z" fill="black"/>
<path fill-rule="evenodd" clip-rule="evenodd" d="M83.059 100.174C83.3214 100.548 83.7305 101.349 83.7305 101.919C83.7305 102.554 83.3832 103 82.878 103C82.3096 103 81.9939 102.547 81.9939 101.919C81.9939 101.462 82.386 100.637 82.6487 100.221C82.2636 100.497 81.4461 100.931 81.0084 100.931C80.4229 100.931 80 100.593 80 99.9832C80 99.4415 80.4156 99.0691 81.0084 99.0691C81.5668 99.0691 82.3808 99.5644 82.7115 99.8464L81.9297 97C82.6747 97.283 83.1478 97.2885 83.8594 97L83.0182 99.8486C83.3266 99.575 84.1455 99.0691 84.7161 99.0691C85.309 99.0691 85.7246 99.4415 85.7246 99.9832C85.7246 100.593 85.3017 100.931 84.7161 100.931C84.2616 100.931 83.4151 100.452 83.059 100.174Z" fill="black"/>
</svg>
