<svg width="95" height="133" viewBox="0 0 95 133" fill="none" xmlns="http://www.w3.org/2000/svg">
<rect width="95" height="133" rx="4" fill="white"/>
<path d="M15.264 18.336C15.264 20.976 14.208 22.032 12.6 22.032C11.064 22.032 10.128 21.12 10.128 18.912V18.696H7.728V19.104C7.728 22.464 9.84 24.24 12.6 24.24C15.48 24.24 17.664 22.272 17.664 18.528V11.472C17.664 7.728 15.48 5.76 12.6 5.76C9.72 5.76 7.536 7.656 7.536 11.232V11.712C7.536 15.36 9.504 17.184 11.976 17.184C13.32 17.184 14.496 16.656 15.264 15.312V18.336ZM15.264 11.688C15.264 14.04 14.232 14.976 12.6 14.976C10.92 14.976 9.936 14.04 9.936 11.688V11.256C9.936 8.952 10.968 7.968 12.6 7.968C14.232 7.968 15.264 8.928 15.264 11.256V11.688Z" fill="black"/>
<path d="M79.736 113.664C79.736 111.024 80.792 109.968 82.4 109.968C83.936 109.968 84.872 110.88 84.872 113.088L84.872 113.304L87.272 113.304L87.272 112.896C87.272 109.536 85.16 107.76 82.4 107.76C79.52 107.76 77.336 109.728 77.336 113.472L77.336 120.528C77.336 124.272 79.52 126.24 82.4 126.24C85.28 126.24 87.464 124.344 87.464 120.768L87.464 120.288C87.464 116.64 85.496 114.816 83.024 114.816C81.68 114.816 80.504 115.344 79.736 116.688L79.736 113.664ZM79.736 120.312C79.736 117.96 80.768 117.024 82.4 117.024C84.08 117.024 85.064 117.96 85.064 120.312L85.064 120.744C85.064 123.048 84.032 124.032 82.4 124.032C80.768 124.032 79.736 123.072 79.736 120.744L79.736 120.312Z" fill="black"/>
<path fill-rule="evenodd" clip-rule="evenodd" d="M47.53 57.2785C45.6964 55.2252 43.2335 54.0001 41.0828 54.0001C37.4088 54.0001 33.1837 56.0689 33 62.2754C33.1709 68.3992 39.8603 73.5464 46.2644 78.474C46.7441 78.8432 47.2223 79.2111 47.696 79.5781C47.696 79.5781 47.696 79.5781 47.696 79.578C47.6961 79.5781 47.6961 79.5781 47.6961 79.5781C47.9305 79.3965 48.1655 79.2147 48.4009 79.0326C54.9912 73.9345 61.8473 68.6309 62.0247 62.2754C61.841 56.0689 57.2485 54.0001 53.5745 54.0001C51.4238 54.0001 49.169 55.2252 47.53 57.2785Z" fill="#FF4545"/>
<path fill-rule="evenodd" clip-rule="evenodd" d="M12.5214 34.9928C12.4107 34.9091 12.299 34.8252 12.1869 34.741C10.6483 33.5851 9.04106 32.3776 9 30.9411C9.04414 29.4852 10.0593 28.9999 10.942 28.9999C11.4587 28.9999 12.0504 29.2872 12.4909 29.7688C12.8847 29.2872 13.4264 28.9999 13.9431 28.9999C14.8258 28.9999 15.9293 29.4852 15.9734 30.9411C15.9308 32.432 14.2835 33.6761 12.7001 34.872C12.6467 34.9123 12.5935 34.9526 12.5403 34.9928C12.5372 34.9952 12.5341 34.9976 12.5309 35C12.5309 35 12.5309 35 12.5308 34.9999C12.5308 35 12.5308 35 12.5308 35C12.5276 34.9976 12.5245 34.9952 12.5214 34.9928Z" fill="#FF4545"/>
<path fill-rule="evenodd" clip-rule="evenodd" d="M82.452 98.0068C82.5627 98.0855 82.6744 98.1644 82.7864 98.2436C84.3251 99.3305 85.9323 100.466 85.9734 101.817C85.9293 103.186 84.9141 103.642 84.0314 103.642C83.5147 103.642 82.923 103.372 82.4824 102.919C82.0887 103.372 81.547 103.642 81.0303 103.642C80.1475 103.642 79.0441 103.186 79 101.817C79.0426 100.415 80.6899 99.2449 82.2733 98.1203C82.3267 98.0824 82.3799 98.0446 82.4331 98.0068C82.4362 98.0045 82.4393 98.0023 82.4425 98C82.4425 98 82.4425 98 82.4426 98.0001C82.4426 98 82.4426 98 82.4426 98C82.4458 98.0023 82.4489 98.0045 82.452 98.0068Z" fill="#FF4545"/>
</svg>
