<svg width="95" height="133" viewBox="0 0 95 133" fill="none" xmlns="http://www.w3.org/2000/svg">
<rect width="95" height="133" rx="4" fill="white"/>
<path d="M12.36 24.24C13.584 24.24 14.688 23.784 15.144 22.68L16.104 24H18.432L16.848 21.816C17.76 21.048 18.144 19.728 18.144 18.096V11.904C18.144 7.8 16.152 5.76 12.84 5.76C9.528 5.76 7.536 7.8 7.536 11.904V18.096C7.536 22.2 9.528 24.24 12.36 24.24ZM12.84 22.032C11.016 22.032 9.936 20.976 9.936 18.096V11.904C9.936 9.024 11.04 7.968 12.84 7.968C14.664 7.968 15.744 9.024 15.744 11.904V18.096C15.744 18.96 15.648 19.656 15.456 20.208L13.704 17.76H11.304L14.28 21.72C13.872 21.936 13.392 22.032 12.84 22.032Z" fill="black"/>
<path d="M82.64 107.76C81.416 107.76 80.312 108.216 79.856 109.32L78.896 108L76.568 108L78.152 110.184C77.24 110.952 76.856 112.272 76.856 113.904L76.856 120.096C76.856 124.2 78.848 126.24 82.16 126.24C85.472 126.24 87.464 124.2 87.464 120.096L87.464 113.904C87.464 109.8 85.472 107.76 82.64 107.76ZM82.16 109.968C83.984 109.968 85.064 111.024 85.064 113.904L85.064 120.096C85.064 122.976 83.96 124.032 82.16 124.032C80.336 124.032 79.256 122.976 79.256 120.096L79.256 113.904C79.256 113.04 79.352 112.344 79.544 111.792L81.296 114.24L83.696 114.24L80.72 110.28C81.128 110.064 81.608 109.968 82.16 109.968Z" fill="black"/>
<path fill-rule="evenodd" clip-rule="evenodd" d="M48.3189 66.7767C49.4121 65.2172 51.118 61.8801 51.118 59.5052C51.118 56.8565 49.6708 55 47.5657 55C45.1976 55 43.8819 56.8893 43.8819 59.5052C43.8819 61.4076 45.5171 64.8472 46.6115 66.5821C45.0078 65.4322 41.5999 63.6209 39.7757 63.6209C37.336 63.6209 35.574 65.0315 35.574 67.5707C35.574 69.8278 37.3055 71.3795 39.7757 71.3795C42.1019 71.3795 45.4924 69.3165 46.8711 68.1414L43.6141 79.9999C46.7182 78.8205 48.6891 78.7977 51.6541 79.9999L48.1494 68.1312C49.4342 69.2714 52.8464 71.3795 55.2243 71.3795C57.6946 71.3795 59.4261 69.8278 59.4261 67.5707C59.4261 65.0315 57.6641 63.6209 55.2243 63.6209C53.3302 63.6209 49.8022 65.619 48.3189 66.7767Z" fill="black"/>
<path fill-rule="evenodd" clip-rule="evenodd" d="M12.059 31.8261C12.3214 31.4516 12.7305 30.6511 12.7305 30.0813C12.7305 29.4456 12.3832 29 11.878 29C11.3096 29 10.9939 29.4534 10.9939 30.0813C10.9939 30.5377 11.386 31.3628 11.6487 31.7793C11.2636 31.5033 10.4461 31.0688 10.0084 31.0688C9.42289 31.0688 9 31.4074 9 32.0168C9 32.5585 9.41556 32.9309 10.0084 32.9309C10.5668 32.9309 11.3808 32.4356 11.7115 32.1536L10.9297 35C11.6747 34.717 12.1478 34.7115 12.8594 35L12.0182 32.1514C12.3266 32.425 13.1455 32.9309 13.7161 32.9309C14.309 32.9309 14.7246 32.5585 14.7246 32.0168C14.7246 31.4074 14.3017 31.0688 13.7161 31.0688C13.2616 31.0688 12.4151 31.5482 12.059 31.8261Z" fill="black"/>
<path fill-rule="evenodd" clip-rule="evenodd" d="M83.059 100.174C83.3214 100.548 83.7305 101.349 83.7305 101.919C83.7305 102.554 83.3832 103 82.878 103C82.3096 103 81.9939 102.547 81.9939 101.919C81.9939 101.462 82.386 100.637 82.6487 100.221C82.2636 100.497 81.4461 100.931 81.0084 100.931C80.4229 100.931 80 100.593 80 99.9832C80 99.4415 80.4156 99.0691 81.0084 99.0691C81.5668 99.0691 82.3808 99.5644 82.7115 99.8464L81.9297 97C82.6747 97.283 83.1478 97.2885 83.8594 97L83.0182 99.8486C83.3266 99.575 84.1455 99.0691 84.7161 99.0691C85.309 99.0691 85.7246 99.4415 85.7246 99.9832C85.7246 100.593 85.3017 100.931 84.7161 100.931C84.2616 100.931 83.4151 100.452 83.059 100.174Z" fill="black"/>
</svg>
